<?xml version="1.0" standalone="no"?>
<!DOCTYPE svg PUBLIC "-//W3C//DTD SVG 20010904//EN"
 "http://www.w3.org/TR/2001/REC-SVG-20010904/DTD/svg10.dtd">
<svg version="1.0" xmlns="http://www.w3.org/2000/svg"
 width="500.000000pt" height="500.000000pt" viewBox="0 0 500.000000 500.000000"
 preserveAspectRatio="xMidYMid meet">

<g transform="translate(0.000000,500.000000) scale(0.100000,-0.100000)"
fill="#000000" stroke="none">
<path d="M2080 4874 c-158 -48 -196 -67 -220 -106 -31 -48 -23 -98 54 -342 59
-185 65 -212 56 -245 -14 -51 -12 -130 4 -185 l15 -48 -42 -18 c-195 -83 -250
-110 -346 -164 -60 -35 -146 -89 -192 -122 -97 -70 -274 -237 -352 -332 -219
-268 -368 -611 -433 -992 -12 -70 -18 -157 -18 -260 0 -449 142 -870 415
-1232 131 -174 360 -377 566 -501 165 -100 425 -198 628 -236 706 -134 1392
96 1872 629 421 466 596 1113 467 1725 -84 397 -287 762 -581 1045 -152 147
-271 232 -453 323 -171 86 -343 145 -531 182 -111 21 -153 35 -241 78 -95 46
-107 55 -112 82 -10 51 -51 127 -98 181 -41 48 -48 65 -107 265 -35 118 -71
227 -80 242 -22 40 -71 67 -117 67 -22 -1 -91 -17 -154 -36z m174 -172 c19
-59 46 -153 60 -209 30 -121 53 -170 111 -232 55 -60 65 -80 65 -136 0 -25 5
-55 10 -66 6 -10 50 -39 99 -63 97 -49 145 -95 159 -153 26 -106 66 -263 101
-393 21 -80 59 -226 85 -325 37 -142 54 -191 82 -231 42 -63 43 -93 3 -139
-95 -108 -448 -218 -591 -184 -68 16 -82 36 -84 122 -2 61 -14 105 -77 287
-42 118 -105 299 -140 402 -36 103 -73 201 -83 217 -16 27 -17 39 -7 106 8 58
20 90 52 143 47 78 51 116 19 158 -24 30 -25 37 -17 229 2 57 -3 82 -24 135
-30 74 -107 326 -107 350 0 11 34 26 118 51 64 21 120 37 124 38 4 1 23 -47
42 -107z m818 -891 c654 -169 1173 -710 1317 -1372 67 -312 51 -650 -46 -954
-188 -589 -682 -1055 -1278 -1208 -186 -47 -230 -52 -465 -52 -235 0 -279 5
-465 52 -632 162 -1139 666 -1304 1298 -44 167 -56 270 -55 485 1 311 44 505
170 770 173 363 486 682 827 844 138 65 137 65 137 17 0 -27 -6 -43 -17 -51
-17 -10 -17 -10 1 -8 15 2 21 -5 28 -34 4 -20 27 -81 52 -135 24 -55 49 -119
56 -143 6 -24 52 -157 101 -297 64 -184 89 -267 89 -301 0 -107 44 -184 129
-227 115 -58 431 -6 631 102 141 77 195 145 195 248 0 51 -7 75 -47 160 -27
59 -61 157 -83 240 -20 77 -57 218 -81 314 -25 95 -43 179 -40 187 3 8 1 14
-4 14 -6 0 -10 18 -10 40 0 36 3 40 24 40 14 0 76 -13 138 -29z"/>
<path d="M2100 4425 c0 -5 5 -17 10 -25 5 -8 10 -10 10 -5 0 6 -5 17 -10 25
-5 8 -10 11 -10 5z"/>
<path d="M2285 4153 c-60 -19 -112 -37 -114 -39 -10 -9 60 -134 82 -149 22
-14 29 -14 89 5 85 26 92 35 84 107 -9 80 -16 113 -24 112 -4 -1 -56 -17 -117
-36z"/>
<path d="M2358 3932 c-26 -9 -52 -22 -58 -28 -8 -8 -4 -51 14 -155 14 -79 35
-198 47 -264 11 -66 29 -167 39 -225 11 -58 22 -126 25 -152 4 -28 15 -54 29
-66 34 -32 192 -113 208 -107 21 8 85 123 96 172 15 64 -3 134 -67 262 -32 64
-104 221 -162 349 -57 127 -108 232 -114 231 -5 0 -31 -8 -57 -17z"/>
<path d="M2162 3858 c-37 -54 -62 -127 -62 -180 0 -38 1 -41 16 -27 8 9 26 56
39 106 13 49 29 101 34 116 15 38 6 34 -27 -15z"/>
<path d="M2240 3276 c0 -4 39 -116 86 -249 77 -216 86 -247 81 -293 -6 -61 -1
-72 43 -80 l34 -7 -22 23 c-17 19 -20 31 -16 64 5 37 -6 73 -96 292 -98 239
-110 266 -110 250z"/>
<path d="M2968 3743 c7 -3 16 -2 19 1 4 3 -2 6 -13 5 -11 0 -14 -3 -6 -6z"/>
<path d="M3290 3640 c8 -5 20 -10 25 -10 6 0 3 5 -5 10 -8 5 -19 10 -25 10 -5
0 -3 -5 5 -10z"/>
<path d="M1744 3564 c-18 -14 -18 -15 4 -4 12 6 22 13 22 15 0 8 -5 6 -26 -11z"/>
<path d="M1694 3534 c-18 -14 -18 -15 4 -4 12 6 22 13 22 15 0 8 -5 6 -26 -11z"/>
<path d="M1644 3504 c-18 -14 -18 -15 4 -4 12 6 22 13 22 15 0 8 -5 6 -26 -11z"/>
<path d="M1599 3473 c-13 -16 -12 -17 4 -4 9 7 17 15 17 17 0 8 -8 3 -21 -13z"/>
<path d="M1529 3423 c-13 -16 -12 -17 4 -4 9 7 17 15 17 17 0 8 -8 3 -21 -13z"/>
<path d="M1474 3378 l-29 -33 33 29 c17 17 32 31 32 33 0 8 -8 1 -36 -29z"/>
<path d="M3700 3396 c0 -2 8 -10 18 -17 15 -13 16 -12 3 4 -13 16 -21 21 -21
13z"/>
<path d="M3835 3270 c49 -49 92 -90 95 -90 2 0 -36 41 -85 90 -49 50 -92 90
-95 90 -2 0 36 -40 85 -90z"/>
<path d="M1350 3263 l-85 -88 88 85 c81 79 92 90 84 90 -1 0 -41 -39 -87 -87z"/>
<path d="M1244 3148 l-19 -23 23 19 c21 18 27 26 19 26 -2 0 -12 -10 -23 -22z"/>
<path d="M3955 3140 c10 -11 20 -20 23 -20 3 0 -3 9 -13 20 -10 11 -20 20 -23
20 -3 0 3 -9 13 -20z"/>
<path d="M1199 3093 c-13 -16 -12 -17 4 -4 9 7 17 15 17 17 0 8 -8 3 -21 -13z"/>
<path d="M3980 3106 c0 -2 8 -10 18 -17 15 -13 16 -12 3 4 -13 16 -21 21 -21
13z"/>
<path d="M1149 3023 c-13 -16 -12 -17 4 -4 9 7 17 15 17 17 0 8 -8 3 -21 -13z"/>
<path d="M1100 2950 c-6 -11 -8 -20 -6 -20 3 0 10 9 16 20 6 11 8 20 6 20 -3
0 -10 -9 -16 -20z"/>
<path d="M4120 2900 c6 -11 13 -20 16 -20 2 0 0 9 -6 20 -6 11 -13 20 -16 20
-2 0 0 -9 6 -20z"/>
<path d="M4311 2404 c0 -11 3 -14 6 -6 3 7 2 16 -1 19 -3 4 -6 -2 -5 -13z"/>
<path d="M871 2354 c0 -11 3 -14 6 -6 3 7 2 16 -1 19 -3 4 -6 -2 -5 -13z"/>
<path d="M3157 2353 c-11 -10 -8 -43 3 -43 9 0 30 31 30 44 0 8 -25 7 -33 -1z"/>
<path d="M4331 2304 c0 -11 3 -14 6 -6 3 7 2 16 -1 19 -3 4 -6 -2 -5 -13z"/>
<path d="M861 2284 c0 -11 3 -14 6 -6 3 7 2 16 -1 19 -3 4 -6 -2 -5 -13z"/>
<path d="M1690 2166 l0 -116 70 0 c63 0 70 2 70 20 0 17 -7 20 -51 20 l-50 0
2 93 c2 87 1 92 -20 95 -20 3 -21 0 -21 -112z"/>
<path d="M1860 2165 c0 -108 1 -115 20 -115 19 0 20 7 20 115 0 108 -1 115
-20 115 -19 0 -20 -7 -20 -115z"/>
<path d="M2003 2261 c-19 -12 -35 -32 -39 -48 -3 -15 -7 -33 -9 -40 -8 -24 17
-83 42 -103 37 -29 103 -27 139 4 28 23 28 23 6 30 -14 5 -30 1 -44 -8 -31
-22 -45 -20 -73 9 -66 65 7 172 84 123 10 -6 27 -8 37 -4 17 6 17 8 -3 27 -30
31 -99 35 -140 10z"/>
<path d="M2244 2261 c-38 -23 -59 -77 -50 -126 16 -82 127 -115 187 -56 24 25
29 37 29 80 0 41 -5 56 -27 81 -37 41 -94 50 -139 21z m106 -48 c27 -34 22
-89 -11 -115 -28 -24 -43 -23 -75 5 -32 28 -36 72 -10 111 23 36 67 35 96 -1z"/>
<path d="M2460 2165 l0 -115 25 0 c23 0 25 4 25 40 0 36 3 40 24 40 41 0 55
-11 62 -46 5 -27 11 -34 29 -34 21 0 22 3 15 34 -4 18 -10 38 -14 44 -3 5 1
25 8 44 28 66 -17 108 -116 108 l-58 0 0 -115z m128 63 c28 -28 -1 -68 -49
-68 -27 0 -29 2 -29 40 0 39 1 40 33 40 18 0 38 -5 45 -12z"/>
<path d="M2695 2258 c-4 -19 -2 -139 4 -195 1 -9 22 -13 71 -13 56 0 70 3 70
15 0 11 -12 15 -51 15 l-50 0 3 33 c3 30 6 32 46 35 28 2 42 8 42 18 0 10 -12
14 -45 14 -43 0 -45 1 -45 30 0 29 1 30 50 30 43 0 50 3 50 20 0 18 -7 20 -70
20 -64 0 -70 -2 -75 -22z"/>
<path d="M2890 2166 l0 -116 25 0 c23 0 25 4 25 40 0 38 2 40 29 40 36 0 61
-23 61 -56 0 -19 5 -24 24 -24 22 0 23 3 16 33 -4 17 -11 39 -15 48 -3 10 -2
20 4 24 6 3 11 23 11 44 0 56 -26 75 -111 79 l-69 4 0 -116z m134 52 c17 -27
-5 -52 -48 -56 l-36 -3 0 41 0 41 36 -3 c22 -2 42 -10 48 -20z"/>
<path d="M3130 2165 c0 -108 1 -115 20 -115 19 0 20 7 20 115 0 108 -1 115
-20 115 -19 0 -20 -7 -20 -115z"/>
<path d="M3267 2170 c-26 -60 -47 -112 -47 -115 0 -3 9 -5 20 -5 12 0 25 10
32 25 10 22 17 25 63 25 46 0 53 -3 63 -25 10 -22 52 -37 52 -19 0 10 -83 198
-93 212 -25 32 -44 12 -90 -98z m97 -17 c7 -21 4 -23 -28 -23 -20 0 -36 2 -36
5 0 2 7 23 17 46 16 41 16 41 28 18 7 -13 16 -34 19 -46z"/>
<path d="M852 2210 c0 -19 2 -27 5 -17 2 9 2 25 0 35 -3 9 -5 1 -5 -18z"/>
<path d="M4354 2030 c0 -69 1 -97 3 -62 2 34 2 90 0 125 -2 34 -3 6 -3 -63z"/>
<path d="M3303 1883 c-3 -10 -13 -26 -21 -35 -14 -16 -13 -18 5 -18 21 0 63
39 63 58 0 19 -40 14 -47 -5z"/>
<path d="M852 1850 c0 -19 2 -27 5 -17 2 9 2 25 0 35 -3 9 -5 1 -5 -18z"/>
<path d="M3241 1797 c-39 -12 -98 -67 -112 -104 -15 -40 -11 -151 7 -190 34
-70 118 -106 200 -84 104 28 156 173 103 286 -23 48 -54 75 -108 93 -39 14
-44 14 -90 -1z m109 -49 c36 -25 69 -94 69 -143 0 -80 -66 -165 -129 -165 -65
0 -130 78 -130 155 0 136 98 215 190 153z"/>
<path d="M1410 1608 l0 -188 110 0 c91 0 110 3 110 15 0 12 -16 15 -80 15
l-80 0 0 75 0 75 76 0 c56 0 75 3 72 13 -3 8 -30 13 -76 15 l-72 3 0 64 0 64
77 3 c48 2 78 7 80 15 3 8 -27 13 -106 15 l-111 3 0 -187z"/>
<path d="M2123 1793 c-23 -4 -23 -6 -23 -189 l0 -184 75 0 c92 0 131 17 151
66 14 32 13 39 -3 72 -10 19 -27 40 -38 46 -11 6 -22 12 -24 14 -3 1 5 10 18
18 47 33 51 109 7 138 -24 15 -125 28 -163 19z m116 -38 c50 -25 47 -96 -4
-115 -40 -15 -82 -12 -89 6 -10 27 -7 99 6 112 16 16 53 15 87 -3z m22 -176
c25 -18 30 -27 27 -57 -2 -28 -10 -41 -37 -59 -40 -27 -96 -31 -105 -7 -8 21
-8 129 1 137 15 15 86 6 114 -14z"/>
<path d="M2481 1783 c-19 -9 -47 -37 -62 -62 -57 -88 -32 -233 48 -287 19 -13
46 -19 88 -19 69 0 98 15 142 72 26 33 28 43 28 123 0 80 -2 89 -29 124 -48
64 -141 85 -215 49z m136 -33 c45 -27 66 -72 66 -145 0 -38 -7 -74 -17 -94
-20 -37 -70 -71 -106 -71 -39 0 -87 35 -110 79 -40 80 -15 190 53 231 41 25
73 25 114 0z"/>
<path d="M2906 1790 c-35 -11 -82 -54 -104 -95 -21 -40 -21 -150 0 -190 37
-70 110 -102 205 -90 44 5 53 10 53 27 0 15 -4 18 -17 13 -54 -23 -117 -13
-167 26 -13 10 -32 42 -42 71 -15 48 -16 55 0 103 9 28 26 61 38 72 34 30 90
45 141 38 29 -5 47 -3 51 4 16 26 -93 40 -158 21z"/>
<path d="M861 1774 c0 -11 3 -14 6 -6 3 7 2 16 -1 19 -3 4 -6 -2 -5 -13z"/>
<path d="M1710 1605 l0 -185 105 0 c85 0 105 3 105 15 0 11 -18 15 -82 17
l-83 3 -3 168 c-2 159 -3 167 -22 167 -19 0 -20 -7 -20 -185z"/>
<path d="M3530 1605 c0 -178 1 -185 20 -185 19 0 20 7 20 152 0 110 3 149 11
141 6 -6 50 -73 98 -149 73 -118 91 -139 114 -142 l27 -3 0 186 c0 186 0 186
-22 183 -22 -3 -22 -5 -19 -150 3 -147 -4 -175 -28 -122 -7 15 -47 83 -89 150
-68 110 -80 124 -104 124 l-28 0 0 -185z"/>
<path d="M4331 1754 c0 -11 3 -14 6 -6 3 7 2 16 -1 19 -3 4 -6 -2 -5 -13z"/>
<path d="M2333 1053 c-41 -8 -73 -59 -73 -115 0 -41 5 -54 29 -79 64 -64 181
-22 181 65 l0 36 -52 -2 c-41 -2 -54 -7 -56 -20 -3 -15 4 -18 32 -18 41 0 45
-11 16 -40 -27 -27 -56 -25 -85 5 -66 65 8 172 82 120 12 -8 28 -12 37 -9 53
20 -46 71 -111 57z"/>
<path d="M1820 977 c0 -78 -16 -117 -49 -117 -20 0 -51 30 -51 48 0 7 -11 12
-24 12 -19 0 -22 -4 -18 -25 12 -63 110 -88 157 -40 23 22 25 32 25 110 0 78
-2 85 -20 85 -18 0 -20 -7 -20 -73z"/>
<path d="M1911 965 c4 -75 7 -87 29 -109 39 -38 98 -39 135 -1 23 22 25 32 25
110 0 78 -2 85 -20 85 -18 0 -20 -7 -20 -73 0 -78 -16 -117 -50 -117 -38 0
-50 27 -50 111 0 78 0 79 -26 79 l-26 0 3 -85z"/>
<path d="M2160 940 c0 -103 1 -110 20 -110 19 0 20 7 20 110 0 103 -1 110 -20
110 -19 0 -20 -7 -20 -110z"/>
<path d="M2548 940 c-45 -107 -46 -110 -24 -110 15 0 27 9 34 25 10 22 18 25
62 25 44 0 52 -3 62 -25 7 -16 19 -25 34 -25 22 0 22 2 -18 93 -22 50 -42 100
-45 110 -3 10 -15 17 -32 17 -24 0 -30 -10 -73 -110z m90 25 c19 -42 15 -55
-18 -55 -33 0 -35 3 -19 49 13 38 22 39 37 6z"/>
<path d="M2770 940 l0 -110 75 0 c59 0 75 3 75 14 0 11 -14 16 -47 18 l-48 3
-3 93 c-3 90 -3 92 -27 92 l-25 0 0 -110z"/>
<path d="M2950 940 c0 -102 1 -110 19 -110 16 0 20 8 23 38 3 37 4 37 50 40
37 2 52 9 68 29 25 33 25 54 -1 87 -19 24 -27 26 -90 26 l-69 0 0 -110z m124
58 c17 -27 -5 -52 -48 -56 l-36 -3 0 41 0 41 36 -3 c22 -2 42 -10 48 -20z"/>
<path d="M3222 1023 c-5 -16 -26 -65 -46 -110 -35 -83 -35 -83 -12 -83 15 0
27 9 34 25 10 22 18 25 62 25 44 0 52 -3 62 -25 7 -16 19 -25 34 -25 l24 0
-26 58 c-14 31 -35 81 -47 109 -19 45 -26 53 -49 53 -19 0 -29 -7 -36 -27z
m57 -64 c16 -46 14 -49 -19 -49 -33 0 -37 13 -18 55 15 33 24 32 37 -6z"/>
<path d="M1230 926 c0 -2 8 -10 18 -17 15 -13 16 -12 3 4 -13 16 -21 21 -21
13z"/>
<path d="M3879 833 l-24 -28 28 24 c25 23 32 31 24 31 -2 0 -14 -12 -28 -27z"/>
<path d="M1365 780 c33 -33 62 -60 64 -60 3 0 -21 27 -54 60 -33 33 -62 60
-64 60 -3 0 21 -27 54 -60z"/>
<path d="M3774 728 l-19 -23 23 19 c21 18 27 26 19 26 -2 0 -12 -10 -23 -22z"/>
<path d="M1475 680 c10 -11 20 -20 23 -20 3 0 -3 9 -13 20 -10 11 -20 20 -23
20 -3 0 3 -9 13 -20z"/>
<path d="M3709 673 c-13 -16 -12 -17 4 -4 16 13 21 21 13 21 -2 0 -10 -8 -17
-17z"/>
<path d="M1737 499 c7 -7 15 -10 18 -7 3 3 -2 9 -12 12 -14 6 -15 5 -6 -5z"/>
<path d="M3008 323 c7 -3 16 -2 19 1 4 3 -2 6 -13 5 -11 0 -14 -3 -6 -6z"/>
<path d="M2403 283 c9 -2 25 -2 35 0 9 3 1 5 -18 5 -19 0 -27 -2 -17 -5z"/>
<path d="M2763 283 c9 -2 25 -2 35 0 9 3 1 5 -18 5 -19 0 -27 -2 -17 -5z"/>
<path d="M2568 273 c23 -2 61 -2 85 0 23 2 4 4 -43 4 -47 0 -66 -2 -42 -4z"/>
</g>
</svg>
